<?xml version="1.0" encoding="UTF-8"?>
<svg version="1.1" xmlns="http://www.w3.org/2000/svg" width="204" height="192">
<path d="M0 0 C67.32 0 134.64 0 204 0 C204 63.36 204 126.72 204 192 C136.68 192 69.36 192 0 192 C0 128.64 0 65.28 0 0 Z " fill="#FCFCFD" transform="translate(0,0)"/>
<path d="M0 0 C13.2 0 26.4 0 40 0 C40.06295345 7.99042453 40.12305277 15.97994822 40.15525055 23.97040558 C40.17107631 27.69156023 40.19221612 31.41250906 40.22631836 35.13354492 C40.25897295 38.71916041 40.27686576 42.30457662 40.28463173 45.89032936 C40.29016435 47.25665231 40.30096836 48.62296465 40.31719017 49.9892025 C40.33904275 51.90634857 40.34022607 53.82369622 40.34057617 55.7409668 C40.35056892 57.37644722 40.35056892 57.37644722 40.36076355 59.04496765 C39.94875819 62.4197242 38.93203326 64.23422333 37 67 C36.38125 67.928125 35.7625 68.85625 35.125 69.8125 C33 72 33 72 30.4375 72.5625 C28 72 28 72 26.36894226 70.26861572 C24.77747399 67.63122915 24.63529217 66.19632549 24.65942383 63.13964844 C24.65976372 61.69860748 24.65976372 61.69860748 24.66011047 60.22845459 C24.67559433 59.19915833 24.69107819 58.16986206 24.70703125 57.109375 C24.71127609 56.04962463 24.71552094 54.98987427 24.71989441 53.89801025 C24.7366797 50.51508113 24.77433245 47.13274891 24.8125 43.75 C24.82754699 41.45573777 24.84123537 39.1614662 24.85351562 36.8671875 C24.88658272 31.2445882 24.93678097 25.62233675 25 20 C24.34 20 23.68 20 23 20 C22.72999083 26.60098484 22.5001573 33.20249648 22.2980957 39.8059082 C22.22464751 42.05167192 22.14203489 44.29715551 22.05004883 46.54223633 C21.91934165 49.77134639 21.82172808 53.00003279 21.73046875 56.23046875 C21.65894844 57.73386055 21.65894844 57.73386055 21.58598328 59.2676239 C21.45528362 65.09983061 21.45528362 65.09983061 24.28637695 70.1105957 C27.12574376 72.08755114 29.24972604 73.09459039 32.765625 72.86328125 C37.58388616 71.00168035 40.58786182 66.49383747 43.72998047 62.56103516 C44.96187774 61.0468577 46.26354789 59.59028828 47.56640625 58.13671875 C51.98046156 53.12750992 54.65735847 49.45815822 55.6328125 42.8203125 C56 41 56 41 57.6875 38.875 C61.18253477 37.55255441 63.44678866 37.96633852 67 39 C69.99218232 42.50807582 70.81703192 46.60611857 72 51 C74.02742314 53.02742314 76.54616937 53.33541365 79.30859375 53.66796875 C85.52505799 52.12513074 89.35879 44.8985167 93 40 C93.99 39.01 93.99 39.01 95 38 C95.31208427 35.69810016 95.31208427 35.69810016 95.375 33.125 C95.66090371 29.77168874 95.83806794 28.25189431 97.6875 25.375 C100.77168842 23.54115823 102.46274242 23.42248856 106 24 C108.875 25.5625 108.875 25.5625 111 28 C111.625 31.4375 111.625 31.4375 111 35 C108.59348246 38.18509675 106.9680682 39.72097628 103.11328125 40.83203125 C99.40506242 42.2231949 97.86145113 43.87675731 95.3125 46.875 C94.56613281 47.73867188 93.81976563 48.60234375 93.05078125 49.4921875 C92.37402344 50.31976563 91.69726562 51.14734375 91 52 C90.13375 53.02673828 90.13375 53.02673828 89.25 54.07421875 C87.67185497 56.1707393 87.67185497 56.1707393 87.6875 59.9375 C87.38486238 63.24180867 86.73880189 64.77717694 84.25 67 C81 69 81 69 78.4375 69.625 C74.76968913 68.68453568 73.32173375 66.94922936 71 64 C70.25613932 61.69011685 69.57809297 59.35684056 69 57 C67.02186431 54.61696992 67.02186431 54.61696992 63.25390625 54.5 C59.87848137 54.591413 58.25209178 55.19986726 55.83984375 57.5625 C54.84889921 58.68807471 53.88202696 59.83520031 52.9375 61 C52.42654785 61.59651367 51.9155957 62.19302734 51.38916016 62.80761719 C50.37502531 63.99296961 49.36889176 65.18522273 48.37158203 66.38476562 C46.63249618 68.43278841 44.74865737 70.3254918 42.875 72.25 C39.87550018 75.65425161 39.16703511 78.67051707 38.4375 83.078125 C38 85 38 85 36.3125 87.0625 C32.95030094 88.42555367 30.58900037 88.51271434 27 88 C24.09135259 85.40580096 23.12512718 83.6381486 22.375 79.8125 C20.91952256 73.99059022 15.88143029 69.163065 11 66 C7.77050807 65.10914579 5.23306096 65.11221283 2 66 C-1.45165736 68.21731427 -4.13221056 70.96294731 -6.9375 73.9375 C-8.06768555 75.04061523 -8.06768555 75.04061523 -9.22070312 76.16601562 C-13.53068033 80.58403165 -15.89068773 83.9650353 -16.65063477 90.15454102 C-17 92 -17 92 -19 94 C-22.00887945 94.3397122 -24.09715473 94.54965117 -27 94 C-29.5625 91.9375 -29.5625 91.9375 -31 89 C-30.94016186 85.52938771 -30.67167343 83.11945572 -28.875 80.125 C-27 79 -27 79 -23.96875 78.96875 C-18.14033714 78.19816294 -14.52636216 73.39017824 -10.625 69.375 C-9.80644531 68.57964844 -8.98789062 67.78429687 -8.14453125 66.96484375 C-3.59206197 62.36707627 -1.05845273 59.55505634 -1 53 C0.0625 50.5625 0.0625 50.5625 1 49 C0.505 48.505 0.505 48.505 0 48 C-0.09311889 46.49581261 -0.11746028 44.98728644 -0.11352539 43.48022461 C-0.11344986 42.51930405 -0.11337433 41.55838348 -0.11329651 40.56834412 C-0.10813522 39.523564 -0.10297394 38.47878387 -0.09765625 37.40234375 C-0.0962413 36.33834854 -0.09482635 35.27435333 -0.09336853 34.17811584 C-0.08775064 30.76454917 -0.07519511 27.351047 -0.0625 23.9375 C-0.05748731 21.62955824 -0.052924 19.32161545 -0.04882812 17.01367188 C-0.03862433 11.34240279 -0.01905243 5.67127399 0 0 Z " fill="#F4FBFA" transform="translate(62,0)"/>
<path d="M0 0 C17.82 0 35.64 0 54 0 C54 11.22 54 22.44 54 34 C54.66 32.68 55.32 31.36 56 30 C56.52628917 33.15773504 56.73172518 34.93466478 56 38 C53.9765103 40.81904975 51.74593433 43.19197977 49.30078125 45.65234375 C47.38502559 47.60713008 45.98852535 49.42052324 44.5 51.6875 C42 54 42 54 39.8046875 54.2421875 C36.48410738 53.99661405 33.99800901 53.74566505 31.28515625 51.71875 C29.2936426 49.05532749 29.18395243 46.28766703 28.72265625 43.05859375 C28.17400848 40.84898079 28.17400848 40.84898079 26.12890625 39.7109375 C23.10169696 38.70001623 21.03833896 39.14133899 18 40 C15.74869921 42.85465207 15.74869921 42.85465207 15.72265625 46.2578125 C14.78962014 51.0894265 12.71660835 53.34693333 9.4375 56.875 C8.33711246 58.09363522 7.23685221 59.3123854 6.13671875 60.53125 C5.32920166 61.41296875 5.32920166 61.41296875 4.50537109 62.3125 C3.1827128 63.7951815 1.93772624 65.34639127 0.70703125 66.90625 C-3.76414912 72.54654141 -3.76414912 72.54654141 -7.0546875 73.75390625 C-10.93075269 74.09763279 -13.07947749 72.94530724 -16.21923828 70.78466797 C-19.99297759 66.7804125 -19.61867829 62.59393499 -19.52731323 57.32473755 C-19.47447174 56.06515228 -19.42163025 54.80556702 -19.3671875 53.5078125 C-19.33650177 52.20673553 -19.30581604 50.90565857 -19.27420044 49.56515503 C-19.19263888 46.12152373 -19.07446495 42.68010597 -18.94842529 39.237854 C-18.82614125 35.71906212 -18.73879586 32.19941825 -18.6484375 28.6796875 C-18.46632521 21.78523091 -18.24548728 14.89248323 -18 8 C-17.67 8 -17.34 8 -17 8 C-17 11.96 -17 15.92 -17 20 C-16.34 20 -15.68 20 -15 20 C-15.0030162 20.59246521 -15.00603241 21.18493042 -15.00914001 21.79534912 C-15.03369621 27.96017301 -15.00962996 34.12344531 -14.95727539 40.28808594 C-14.94413292 42.58882974 -14.94340382 44.88967922 -14.95532227 47.19042969 C-14.97030392 50.49780817 -14.94070126 53.80223833 -14.90234375 57.109375 C-14.91659897 58.13867126 -14.93085419 59.16796753 -14.94554138 60.22845459 C-15.01509806 65.40715481 -15.01509806 65.40715481 -12.38162231 69.56164551 C-10.25963677 70.85455235 -10.25963677 70.85455235 -7 72 C-6.731875 71.401875 -6.46375 70.80375 -6.1875 70.1875 C-5.00691239 68.01273336 -3.73183488 66.73183488 -2 65 C-0.92429907 61.7728972 -0.8428884 59.3634259 -0.79467773 55.96801758 C-0.77473251 54.72695755 -0.75478729 53.48589752 -0.73423767 52.20722961 C-0.71725473 50.8529981 -0.70037587 49.49876527 -0.68359375 48.14453125 C-0.66301772 46.75875741 -0.64202108 45.37298975 -0.62062073 43.98722839 C-0.56546699 40.34259047 -0.51602826 36.69789654 -0.46777344 33.05316162 C-0.41750944 29.33291659 -0.3619011 25.61275174 -0.30664062 21.89257812 C-0.1986357 14.59511357 -0.09956093 7.29760425 0 0 Z " fill="#F1FAF8" transform="translate(102,0)"/>
<path d="M0 0 C1.98 0 3.96 0 6 0 C5.98667633 0.57993713 5.97335266 1.15987427 5.95962524 1.75738525 C5.82691733 7.79164456 5.73640392 13.8254898 5.67041016 19.86083984 C5.64023038 22.11328975 5.599281 24.36562207 5.54736328 26.61767578 C5.47460318 29.85478701 5.44055531 33.09034555 5.4140625 36.328125 C5.38309479 37.33554749 5.35212708 38.34296997 5.32022095 39.38092041 C5.31893323 42.05382497 5.36855326 44.40231023 6 47 C8.7578712 49.64133173 8.7578712 49.64133173 12 51 C14 53 14 53 14.27734375 56.22265625 C15.20331024 61.06270811 17.11832069 63.08583833 20.5625 66.4375 C21.06330078 66.97826172 21.56410156 67.51902344 22.08007812 68.07617188 C24.85155572 70.84065961 27.05943296 72.40354397 31.0234375 72.75390625 C34.3185822 72.50219107 35.88563226 71.58796936 38.16015625 69.21875 C39.15211081 67.99868915 40.1188663 66.75780672 41.0625 65.5 C42.0917055 64.20383723 43.12164938 62.90826041 44.15234375 61.61328125 C44.63944824 60.98631348 45.12655273 60.3593457 45.62841797 59.71337891 C47.33705877 57.57894652 49.21679425 55.64351048 51.125 53.6875 C54.11323894 50.3374888 55.02131277 47.29566842 55.61328125 42.8828125 C56 41 56 41 58 39 C61.98894311 38.67831104 64.79357588 38.51743035 68.5 40 C70.9023404 43.20312054 70.25747761 46.07346641 70 50 C70.61875 50.309375 71.2375 50.61875 71.875 50.9375 C73.25 51.625 74.625 52.3125 76 53 C79.00996364 53.18059782 80.31846678 53.21270118 83 52 C85.28209462 49.65415972 87.18491589 47.19106302 89.10546875 44.54296875 C91 42 91 42 93.2109375 39.98828125 C95.43413653 37.51752076 95.43251482 36.27028135 95.4375 33 C95.68183842 29.32406422 95.76374051 28.29879876 98.125 25.3125 C101.93317777 23.57398406 104.01451574 23.81911577 108 25 C110 26.625 110 26.625 111 29 C110.77861795 33.20625886 110.34955038 35.47567443 108 39 C106.90042969 39.11859375 105.80085937 39.2371875 104.66796875 39.359375 C100.04610618 40.16660126 99.06982655 41.54716291 96.3125 45.25 C95.22388672 46.68085938 95.22388672 46.68085938 94.11328125 48.140625 C93.41589844 49.08421875 92.71851563 50.0278125 92 51 C91.26136719 51.85980469 90.52273437 52.71960938 89.76171875 53.60546875 C87.9485177 56.06997483 87.54738025 57.08346697 87.5 60.0625 C87 64 87 64 85.5 66.5 C81.74815411 68.75110753 78.2620263 68.78447163 74 68 C71.05006769 65.69536538 71.01284277 64.09311006 70.5 60.375 C70.335 59.26125 70.17 58.1475 70 57 C68.515 56.01 68.515 56.01 67 55 C67 54.34 67 53.68 67 53 C61.85248282 53.46689498 58.08808799 54.3101477 54.625 58.3125 C54.07714844 59.02148438 53.52929688 59.73046875 52.96484375 60.4609375 C51.43196238 62.44179812 49.88072749 64.26121852 48.19140625 66.1015625 C42.7149153 72.13747995 39.07141587 76.69652698 38 85 C36.71484375 86.7109375 36.71484375 86.7109375 35 88 C31.90757993 88.39268826 29.95413346 88.625371 27 88 C23.79650241 85.28934819 23.06781325 83.74594571 22.6875 79.5625 C21.82470972 75.09167764 20.27045182 74.06461228 16.75390625 71.421875 C15 70 15 70 13.125 67.125 C10.85551164 64.85551164 10.08283019 64.40710675 7 63.9375 C0.60241391 64.23456867 -3.24452686 69.46152933 -7.30078125 73.88671875 C-9.03540623 75.84324961 -10.6305091 77.81822634 -12.23046875 79.89453125 C-12.81441406 80.58933594 -13.39835937 81.28414063 -14 82 C-14.66 82 -15.32 82 -16 82 C-15.87625 83.85625 -15.87625 83.85625 -15.75 85.75 C-15.76099666 88.8510592 -15.87918054 89.81412391 -17.625 92.5 C-20.76313998 94.48198314 -22.34873465 94.67064058 -26 94 C-29.36344489 91.51397551 -30.80057749 90.08574477 -31.5625 85.9375 C-31 83 -31 83 -29.5 80.625 C-25.86748926 78.26386802 -23.28156703 78.7145622 -19 79 C-18.7525 78.443125 -18.505 77.88625 -18.25 77.3125 C-16.78393985 74.60028873 -14.97010529 72.36412635 -13 70 C-13.66 70 -14.32 70 -15 70 C-15 53.83 -15 37.66 -15 21 C-13.02 21 -11.04 21 -9 21 C-8.90912109 19.71802734 -8.90912109 19.71802734 -8.81640625 18.41015625 C-8.73261719 17.30542969 -8.64882813 16.20070313 -8.5625 15.0625 C-8.48128906 13.96035156 -8.40007813 12.85820313 -8.31640625 11.72265625 C-8 9 -8 9 -7 8 C-5.00041636 7.95919217 -2.99954746 7.95745644 -1 8 C-0.67 5.36 -0.34 2.72 0 0 Z " fill="#22242D" transform="translate(62,98)"/>
<path d="M0 0 C2.875 1.5625 2.875 1.5625 5 4 C5.625 7.4375 5.625 7.4375 5 11 C2.59348246 14.18509675 0.9680682 15.72097628 -2.88671875 16.83203125 C-6.59493758 18.2231949 -8.13854887 19.87675731 -10.6875 22.875 C-11.43386719 23.73867188 -12.18023437 24.60234375 -12.94921875 25.4921875 C-13.62597656 26.31976563 -14.30273438 27.14734375 -15 28 C-15.5775 28.68449219 -16.155 29.36898437 -16.75 30.07421875 C-18.32814503 32.1707393 -18.32814503 32.1707393 -18.3125 35.9375 C-18.61513762 39.24180867 -19.26119811 40.77717694 -21.75 43 C-25 45 -25 45 -27.5625 45.625 C-31.23031087 44.68453568 -32.67826625 42.94922936 -35 40 C-35.74386068 37.69011685 -36.42190703 35.35684056 -37 33 C-38.97813569 30.61696992 -38.97813569 30.61696992 -42.74609375 30.5 C-46.12151863 30.591413 -47.74790822 31.19986726 -50.16015625 33.5625 C-51.15110079 34.68807471 -52.11797304 35.83520031 -53.0625 37 C-53.57345215 37.59651367 -54.0844043 38.19302734 -54.61083984 38.80761719 C-55.62497469 39.99296961 -56.63110824 41.18522273 -57.62841797 42.38476562 C-59.36750382 44.43278841 -61.25134263 46.3254918 -63.125 48.25 C-66.12449982 51.65425161 -66.83296489 54.67051707 -67.5625 59.078125 C-68 61 -68 61 -69.6875 63.0625 C-73.04969906 64.42555367 -75.41099963 64.51271434 -79 64 C-81.90864741 61.40580096 -82.87487282 59.6381486 -83.625 55.8125 C-85.08047744 49.99059022 -90.11856971 45.163065 -95 42 C-98.22949193 41.10914579 -100.76693904 41.11221283 -104 42 C-107.45165736 44.21731427 -110.13221056 46.96294731 -112.9375 49.9375 C-113.69095703 50.67291016 -114.44441406 51.40832031 -115.22070312 52.16601562 C-119.53068033 56.58403165 -121.89068773 59.9650353 -122.65063477 66.15454102 C-123 68 -123 68 -125 70 C-128.00887945 70.3397122 -130.09715473 70.54965117 -133 70 C-135.5625 67.9375 -135.5625 67.9375 -137 65 C-136.94016186 61.52938771 -136.67167343 59.11945572 -134.875 56.125 C-133 55 -133 55 -129.96875 54.96875 C-124.14033714 54.19816294 -120.52636216 49.39017824 -116.625 45.375 C-115.80644531 44.57964844 -114.98789063 43.78429687 -114.14453125 42.96484375 C-109.54319727 38.31772535 -107.20077309 35.57531875 -107 29 C-104.875 26.5 -104.875 26.5 -102 25 C-98.53241058 25.05978602 -96.11173251 25.39034023 -93.0625 27.0625 C-91.30040672 30.27572893 -91.82217463 33.3842174 -92 37 C-91.443125 37.226875 -90.88625 37.45375 -90.3125 37.6875 C-86.56050235 39.81701218 -83.8328192 42.93743757 -81.1875 46.3125 C-78.61150771 48.29969405 -76.54451575 48.99825406 -73.26953125 48.828125 C-68.40834495 47.05433585 -65.41202749 42.49369891 -62.27001953 38.56103516 C-61.03812226 37.0468577 -59.73645211 35.59028828 -58.43359375 34.13671875 C-54.01953844 29.12750992 -51.34264153 25.45815822 -50.3671875 18.8203125 C-50 17 -50 17 -48.3125 14.875 C-44.81746523 13.55255441 -42.55321134 13.96633852 -39 15 C-36.00781768 18.50807582 -35.18296808 22.60611857 -34 27 C-31.97257686 29.02742314 -29.45383063 29.33541365 -26.69140625 29.66796875 C-20.47494201 28.12513074 -16.64121 20.8985167 -13 16 C-12.34 15.34 -11.68 14.68 -11 14 C-10.68791573 11.69810016 -10.68791573 11.69810016 -10.625 9.125 C-10.33909629 5.77168874 -10.16193206 4.25189431 -8.3125 1.375 C-5.22831158 -0.45884177 -3.53725758 -0.57751144 0 0 Z " fill="#2E3ADD" transform="translate(168,24)"/>
<path d="M0 0 C1.98 0 3.96 0 6 0 C5.99333817 0.87656754 5.99333817 0.87656754 5.98654175 1.77084351 C5.94239238 7.83743858 5.91216866 13.90398823 5.89013672 19.97070312 C5.88006141 22.23667249 5.86640082 24.50262881 5.84912109 26.76855469 C5.82493989 30.02021501 5.81353237 33.27170387 5.8046875 36.5234375 C5.79436493 37.54118256 5.78404236 38.55892761 5.77340698 39.60751343 C5.77325592 40.54833771 5.77310486 41.48916199 5.77294922 42.45849609 C5.76628738 43.70425919 5.76628738 43.70425919 5.75949097 44.97518921 C5.8152993 47.22781007 5.8152993 47.22781007 8 49 C7.05125 49.28875 6.1025 49.5775 5.125 49.875 C1.94788422 50.76825109 1.94788422 50.76825109 0 53 C-0.09152344 54.07378906 -0.18304688 55.14757812 -0.27734375 56.25390625 C-1.16141569 60.83674401 -3.22781021 62.92753655 -6.5625 65.9375 C-7.08263672 66.43056641 -7.60277344 66.92363281 -8.13867188 67.43164062 C-9.41247833 68.63532929 -10.70447049 69.81972352 -12 71 C-12.99 70.67 -13.98 70.34 -15 70 C-15 53.83 -15 37.66 -15 21 C-13.02 21 -11.04 21 -9 21 C-8.93941406 20.14535156 -8.87882812 19.29070312 -8.81640625 18.41015625 C-8.73261719 17.30542969 -8.64882813 16.20070313 -8.5625 15.0625 C-8.48128906 13.96035156 -8.40007813 12.85820313 -8.31640625 11.72265625 C-8 9 -8 9 -7 8 C-5.00041636 7.95919217 -2.99954746 7.95745644 -1 8 C-0.67 5.36 -0.34 2.72 0 0 Z " fill="#E1E2E2" transform="translate(62,98)"/>
<path d="M0 0 C1.98 0 3.96 0 6 0 C6 0.33 6 0.66 6 1 C4.35 1 2.7 1 1 1 C1.33 20.47 1.66 39.94 2 60 C3.32 59.01 4.64 58.02 6 57 C6.33 57.66 6.66 58.32 7 59 C6.55269531 59.50789063 6.10539062 60.01578125 5.64453125 60.5390625 C5.03996094 61.22742187 4.43539062 61.91578125 3.8125 62.625 C2.84570312 63.71167969 2.84570312 63.71167969 1.859375 64.8203125 C0.0264945 66.89607802 0.0264945 66.89607802 -1.296875 68.8671875 C-2.85535856 71.09816739 -4.22444596 72.76087084 -6.875 73.578125 C-10.89673922 73.91326994 -12.84925673 73.1028116 -16.23095703 70.79638672 C-19.98804195 66.78418287 -19.61860979 62.58998491 -19.52731323 57.32473755 C-19.47447174 56.06515228 -19.42163025 54.80556702 -19.3671875 53.5078125 C-19.33650177 52.20673553 -19.30581604 50.90565857 -19.27420044 49.56515503 C-19.19263888 46.12152373 -19.07446495 42.68010597 -18.94842529 39.237854 C-18.82614125 35.71906212 -18.73879586 32.19941825 -18.6484375 28.6796875 C-18.46632521 21.78523091 -18.24548728 14.89248323 -18 8 C-17.67 8 -17.34 8 -17 8 C-17 11.96 -17 15.92 -17 20 C-16.34 20 -15.68 20 -15 20 C-15.0030162 20.59246521 -15.00603241 21.18493042 -15.00914001 21.79534912 C-15.03369621 27.96017301 -15.00962996 34.12344531 -14.95727539 40.28808594 C-14.94413292 42.58882974 -14.94340382 44.88967922 -14.95532227 47.19042969 C-14.97030392 50.49780817 -14.94070126 53.80223833 -14.90234375 57.109375 C-14.91659897 58.13867126 -14.93085419 59.16796753 -14.94554138 60.22845459 C-15.01509806 65.40715481 -15.01509806 65.40715481 -12.38162231 69.56164551 C-10.25963677 70.85455235 -10.25963677 70.85455235 -7 72 C-6.731875 71.401875 -6.46375 70.80375 -6.1875 70.1875 C-5.00691239 68.01273336 -3.73183488 66.73183488 -2 65 C-0.92429907 61.7728972 -0.8428884 59.3634259 -0.79467773 55.96801758 C-0.77473251 54.72695755 -0.75478729 53.48589752 -0.73423767 52.20722961 C-0.71725473 50.8529981 -0.70037587 49.49876527 -0.68359375 48.14453125 C-0.66301772 46.75875741 -0.64202108 45.37298975 -0.62062073 43.98722839 C-0.56546699 40.34259047 -0.51602826 36.69789654 -0.46777344 33.05316162 C-0.41750944 29.3329165 -0.36184896 25.61275257 -0.30664062 21.89257812 C-0.19914101 14.59512087 -0.09767793 7.29759603 0 0 Z " fill="#DCF3EE" transform="translate(102,0)"/>
<path d="M0 0 C1.65 0 3.3 0 5 0 C5.11591817 7.36261724 5.20472648 14.72503734 5.25906086 22.08838272 C5.28514091 25.50765493 5.3205065 28.92630228 5.37719727 32.34521484 C5.44198227 36.27694178 5.4661939 40.20841689 5.48828125 44.140625 C5.51408768 45.36678528 5.5398941 46.59294556 5.56648254 47.85626221 C5.5668602 48.99714294 5.56723785 50.13802368 5.56762695 51.31347656 C5.57873001 52.31719299 5.58983307 53.32090942 5.60127258 54.3550415 C5 57 5 57 0 61 C0 40.87 0 20.74 0 0 Z " fill="#2C2E36" transform="translate(103,98)"/>
<path d="M0 0 C1.65 0 3.3 0 5 0 C5.1266579 7.90184437 5.21429225 15.80342754 5.2746582 23.70605469 C5.29699963 26.39515032 5.33180593 29.08365794 5.37719727 31.77246094 C5.43777116 35.63493744 5.46619417 39.49651062 5.48828125 43.359375 C5.51408768 44.5636615 5.5398941 45.767948 5.56648254 47.00872803 C5.5668602 48.12958801 5.56723785 49.250448 5.56762695 50.40527344 C5.57873001 51.39122498 5.58983307 52.37717651 5.60127258 53.39300537 C5 56 5 56 0 60 C0 40.2 0 20.4 0 0 Z " fill="#39CFA7" transform="translate(103,1)"/>
<path d="M0 0 C1.65 0 3.3 0 5 0 C5.12666598 7.75942579 5.21429555 15.51858551 5.2746582 23.27880859 C5.29981879 25.91920942 5.33395063 28.5595405 5.37719727 31.19970703 C5.43777663 34.99268797 5.4661953 38.78474898 5.48828125 42.578125 C5.51408768 43.76053772 5.5398941 44.94295044 5.56648254 46.16119385 C5.5668602 47.26203308 5.56723785 48.36287231 5.56762695 49.49707031 C5.57873001 50.46525696 5.58983307 51.4334436 5.60127258 52.43096924 C5 55 5 55 0 59 C0 39.53 0 20.06 0 0 Z " fill="#2F3137" transform="translate(95,109)"/>
<path d="M0 0 C1.65 0 3.3 0 5 0 C5.12667436 7.61700708 5.21429896 15.23374306 5.2746582 22.8515625 C5.29981755 25.44346263 5.33394851 28.03529172 5.37719727 30.62695312 C5.43778231 34.35043861 5.46619646 38.07298695 5.48828125 41.796875 C5.51408768 42.95741394 5.5398941 44.11795288 5.56648254 45.31365967 C5.5668602 46.39447815 5.56723785 47.47529663 5.56762695 48.58886719 C5.57873001 49.53928894 5.58983307 50.48971069 5.60127258 51.46893311 C5 54 5 54 0 58 C0 38.86 0 19.72 0 0 Z " fill="#38D1A6" transform="translate(95,12)"/>
<path d="M0 0 C1.65 0 3.3 0 5 0 C5 18.81 5 37.62 5 57 C0 53 0 53 -0.60127258 50.50689697 C-0.59016953 49.57424011 -0.57906647 48.64158325 -0.56762695 47.68066406 C-0.5672493 46.61986633 -0.56687164 45.5590686 -0.56648254 44.46612549 C-0.54067612 43.32746033 -0.51486969 42.18879517 -0.48828125 41.015625 C-0.48120651 39.84489441 -0.47413177 38.67416382 -0.46684265 37.46795654 C-0.43884981 33.72798827 -0.37609721 29.98951593 -0.3125 26.25 C-0.28742368 23.71486537 -0.26460936 21.17970727 -0.24414062 18.64453125 C-0.18900684 12.42917693 -0.10532977 6.21469533 0 0 Z " fill="#38D2A8" transform="translate(79,7)"/>
<path d="M0 0 C1.65 0 3.3 0 5 0 C5 18.48 5 36.96 5 56 C4.34 56 3.68 56 3 56 C0.11764623 52.99261744 -0.3704365 50.87327889 -0.34057617 46.77246094 C-0.34034958 45.73168396 -0.34012299 44.69090698 -0.33988953 43.61859131 C-0.32440567 42.50179993 -0.30892181 41.38500854 -0.29296875 40.234375 C-0.28872391 39.08584045 -0.28447906 37.93730591 -0.28010559 36.75396729 C-0.26331333 33.0857397 -0.22565898 29.41806153 -0.1875 25.75 C-0.17245392 23.26302877 -0.15876539 20.77604892 -0.14648438 18.2890625 C-0.11340796 12.19252088 -0.06320256 6.09629969 0 0 Z " fill="#262930" transform="translate(79,105)"/>
<path d="M0 0 C1.98 0 3.96 0 6 0 C6.09889038 6.05056995 6.17147918 12.10066935 6.21972656 18.15185547 C6.23983969 20.21020705 6.26713397 22.26850152 6.30175781 24.32666016 C6.35028883 27.28562513 6.37297166 30.24383461 6.390625 33.203125 C6.41127014 34.12305237 6.43191528 35.04297974 6.45318604 35.99078369 C6.45542684 42.37364175 6.45542684 42.37364175 4.10058594 45.61230469 C2 47 2 47 0 47 C0 31.49 0 15.98 0 0 Z " fill="#56575D" transform="translate(142,101)"/>
<path d="M0 0 C1.65 0 3.3 0 5 0 C5 16.5 5 33 5 50 C1 49 1 49 0 48 C-0.09311889 46.49581261 -0.11746028 44.98728644 -0.11352539 43.48022461 C-0.11344986 42.51930405 -0.11337433 41.55838348 -0.11329651 40.56834412 C-0.10813522 39.523564 -0.10297394 38.47878387 -0.09765625 37.40234375 C-0.0962413 36.33834854 -0.09482635 35.27435333 -0.09336853 34.17811584 C-0.08775064 30.76454917 -0.07519511 27.351047 -0.0625 23.9375 C-0.05748731 21.62955824 -0.052924 19.32161545 -0.04882812 17.01367188 C-0.0377754 11.34242574 -0.02101987 5.67121747 0 0 Z " fill="#38D1A7" transform="translate(87,20)"/>
<path d="M0 0 C1.65 0 3.3 0 5 0 C5 16.5 5 33 5 50 C3.68 49.67 2.36 49.34 1 49 C-0.19791173 46.60417654 -0.1206744 45.13222462 -0.11352539 42.45849609 C-0.11344986 41.51767181 -0.11337433 40.57684753 -0.11329651 39.60751343 C-0.10555458 38.08089584 -0.10555458 38.08089584 -0.09765625 36.5234375 C-0.0962413 35.48305328 -0.09482635 34.44266907 -0.09336853 33.37075806 C-0.08775866 30.03880979 -0.07520447 26.70692805 -0.0625 23.375 C-0.05748627 21.11979264 -0.05292314 18.86458422 -0.04882812 16.609375 C-0.03778603 11.07289386 -0.02103827 5.53645168 0 0 Z " fill="#25272F" transform="translate(87,118)"/>
<path d="M0 0 C1.65 0 3.3 0 5 0 C5.07456924 5.95903843 5.12879953 11.91780075 5.16479492 17.87719727 C5.17981245 19.90133399 5.20023261 21.92543855 5.22631836 23.94946289 C5.26301267 26.87133761 5.27979708 29.79277935 5.29296875 32.71484375 C5.30845261 33.60896469 5.32393646 34.50308563 5.33988953 35.42430115 C5.34143699 41.2989219 4.63011234 46.67007851 2 52 C1.01 52.495 1.01 52.495 0 53 C0 35.51 0 18.02 0 0 Z " fill="#39D1A7" transform="translate(55,9)"/>
<path d="M0 0 C1.65 0 3.3 0 5 0 C5.07448767 5.97734898 5.1287615 11.95442418 5.16479492 17.93212891 C5.17982599 19.9631013 5.20025647 21.99404154 5.22631836 24.02490234 C5.26295232 26.95418259 5.27978351 29.88303144 5.29296875 32.8125 C5.30845261 33.71178223 5.32393646 34.61106445 5.33988953 35.53759766 C5.34142492 41.36691411 4.48599824 45.69935765 2 51 C1.01 51.495 1.01 51.495 0 52 C0 34.84 0 17.68 0 0 Z " fill="#292B32" transform="translate(55,107)"/>
<path d="M0 0 C1.65 0 3.3 0 5 0 C5 15.51 5 31.02 5 47 C3.35 47 1.7 47 0 47 C0 31.49 0 15.98 0 0 Z " fill="#23252C" transform="translate(63,98)"/>
<path d="M0 0 C1.65 0 3.3 0 5 0 C5.12676673 6.33523191 5.21433632 12.67013694 5.2746582 19.00634766 C5.29980397 21.16174542 5.33392524 23.31705791 5.37719727 25.47216797 C5.43784508 28.57020092 5.46620912 31.66710681 5.48828125 34.765625 C5.51408768 35.72929993 5.5398941 36.69297485 5.56648254 37.68585205 C5.5668602 38.58648376 5.56723785 39.48711548 5.56762695 40.41503906 C5.57873001 41.20557678 5.58983307 41.9961145 5.60127258 42.81060791 C5 45 5 45 0 49 C0 32.83 0 16.66 0 0 Z " fill="#38CFA5" transform="translate(47,21)"/>
<path d="M0 0 C1.65 0 3.3 0 5 0 C5.12662639 6.35354365 5.21427701 12.70676289 5.2746582 19.0612793 C5.29982499 21.22351236 5.33396158 23.38566018 5.37719727 25.54760742 C5.43775296 28.65304572 5.46618787 31.75736097 5.48828125 34.86328125 C5.51408768 35.83211746 5.5398941 36.80095367 5.56648254 37.79914856 C5.5668602 38.6998558 5.56723785 39.60056305 5.56762695 40.52856445 C5.57873001 41.32132278 5.58983307 42.11408112 5.60127258 42.93086243 C5 45 5 45 0 48 C0 32.16 0 16.32 0 0 Z " fill="#2A2D33" transform="translate(47,119)"/>
<path d="M0 0 C1.65 0 3.3 0 5 0 C5 15.18 5 30.36 5 46 C2.525 46.495 2.525 46.495 0 47 C0 31.49 0 15.98 0 0 Z " fill="#33D1A5" transform="translate(63,1)"/>
<path d="M0 0 C1.65 0 3.3 0 5 0 C5.12361242 6.0505426 5.2143458 12.10035017 5.2746582 18.15185547 C5.29980019 20.21025393 5.33391876 22.26856314 5.37719727 24.32666016 C5.4378627 27.28570569 5.46621261 30.24357103 5.48828125 33.203125 C5.51408768 34.12305237 5.5398941 35.04297974 5.56648254 35.99078369 C5.5668602 36.8513739 5.56723785 37.71196411 5.56762695 38.59863281 C5.57873001 39.35364075 5.58983307 40.10864868 5.60127258 40.88653564 C5 43 5 43 0 47 C0 31.49 0 15.98 0 0 Z " fill="#3AD2A8" transform="translate(143,3)"/>
<path d="M0 0 C1.65 0 3.3 0 5 0 C5.02493556 3.98355132 5.04297028 7.96707167 5.05493164 11.95068359 C5.06236421 13.96323241 5.07507829 15.97575949 5.08789062 17.98828125 C5.1233638 32.10660377 5.1233638 32.10660377 4 37 C2.68 37.99 1.36 38.98 0 40 C0 26.8 0 13.6 0 0 Z " fill="#34D1A7" transform="translate(151,0)"/>
<path d="M0 0 C1.65 0 3.3 0 5 0 C5.02465622 4.25414623 5.04283899 8.50825498 5.05493164 12.76245117 C5.05997101 14.21070073 5.06680253 15.65894517 5.07543945 17.10717773 C5.08752247 19.18474588 5.09323211 21.26224697 5.09765625 23.33984375 C5.10289307 24.59144287 5.10812988 25.84304199 5.11352539 27.13256836 C5 30 5 30 4 31 C3.80683287 33.02825491 3.61674212 35.05723921 3.4765625 37.08984375 C3 39 3 39 0 41 C0 27.47 0 13.94 0 0 Z " fill="#34D1A5" transform="translate(111,11)"/>
<path d="M0 0 C1.65 0 3.3 0 5 0 C5 12.21 5 24.42 5 37 C3.35 36.34 1.7 35.68 0 35 C0 23.45 0 11.9 0 0 Z " fill="#3AD1A8" transform="translate(71,12)"/>
<path d="M0 0 C1.65 0 3.3 0 5 0 C5.02465622 4.25414623 5.04283899 8.50825498 5.05493164 12.76245117 C5.05997101 14.21070073 5.06680253 15.65894517 5.07543945 17.10717773 C5.08752247 19.18474588 5.09323211 21.26224697 5.09765625 23.33984375 C5.10289307 24.59144287 5.10812988 25.84304199 5.11352539 27.13256836 C5 30 5 30 4 31 C3.87625 32.11375 3.7525 33.2275 3.625 34.375 C3 38 3 38 0 41 C0 27.47 0 13.94 0 0 Z " fill="#383A41" transform="translate(111,109)"/>
<path d="M0 0 C1.65 0 3.3 0 5 0 C5 12.21 5 24.42 5 37 C3.35 36.34 1.7 35.68 0 35 C0 23.45 0 11.9 0 0 Z " fill="#272932" transform="translate(71,110)"/>
<path d="M0 0 C1.65 0 3.3 0 5 0 C5 10.89 5 21.78 5 33 C2.525 33.495 2.525 33.495 0 34 C0 22.78 0 11.56 0 0 Z " fill="#38D2A9" transform="translate(119,3)"/>
<path d="M0 0 C1.32 0 2.64 0 4 0 C4.0988364 5.21438043 4.17145206 10.42821643 4.21972656 15.64331055 C4.23984903 17.41749569 4.2671503 19.19161446 4.30175781 20.96557617 C4.35024992 23.51497767 4.37296153 26.06350295 4.390625 28.61328125 C4.41127014 29.40712723 4.43191528 30.20097321 4.45318604 31.01887512 C4.45410156 33.26293945 4.45410156 33.26293945 4 37 C2.68 37.99 1.36 38.98 0 40 C0 26.8 0 13.6 0 0 Z " fill="#101218" transform="translate(151,98)"/>
<path d="M0 0 C0.33 0 0.66 0 1 0 C1.33 3.96 1.66 7.92 2 12 C2.33 12 2.66 12 3 12 C3.33 27.84 3.66 43.68 4 60 C2.515 60.495 2.515 60.495 1 61 C-0.51787317 59.6447561 -2.01378389 58.26488729 -3.5 56.875 C-4.75296875 55.72644531 -4.75296875 55.72644531 -6.03125 54.5546875 C-8.41653192 51.45950024 -8.39804797 49.8146264 -8 46 C-7.67 46 -7.34 46 -7 46 C-7 47.65 -7 49.3 -7 51 C-6.360625 51.103125 -5.72125 51.20625 -5.0625 51.3125 C-4.381875 51.539375 -3.70125 51.76625 -3 52 C-2.67 52.99 -2.34 53.98 -2 55 C-1.34 55 -0.68 55 0 55 C0 36.85 0 18.7 0 0 Z " fill="#E3E3E3" transform="translate(84,106)"/>
<path d="M0 0 C1.32 0 2.64 0 4 0 C4 10.89 4 21.78 4 33 C2.02 33.495 2.02 33.495 0 34 C0 22.78 0 11.56 0 0 Z " fill="#121319" transform="translate(119,101)"/>
<path d="M0 0 C1.65 0 3.3 0 5 0 C5 7.92 5 15.84 5 24 C1 23 1 23 0 22 C-0.08700342 20.36527118 -0.10701063 18.72685945 -0.09765625 17.08984375 C-0.09443359 16.10048828 -0.09121094 15.11113281 -0.08789062 14.09179688 C-0.07951172 13.05087891 -0.07113281 12.00996094 -0.0625 10.9375 C-0.05798828 9.89271484 -0.05347656 8.84792969 -0.04882812 7.77148438 C-0.03699913 5.1809334 -0.02051689 2.59049441 0 0 Z " fill="#41D2AA" transform="translate(135,27)"/>
<path d="M0 0 C0.66 0 1.32 0 2 0 C2.33 18.48 2.66 36.96 3 56 C1.515 56.495 1.515 56.495 0 57 C0 38.19 0 19.38 0 0 Z " fill="#2ED0A2" transform="translate(104,2)"/>
<path d="M0 0 C1.65 0 3.3 0 5 0 C5 7.59 5 15.18 5 23 C2.525 22.01 2.525 22.01 0 21 C0 14.07 0 7.14 0 0 Z " fill="#39D2A9" transform="translate(127,15)"/>
<path d="M0 0 C0.99 0 1.98 0 3 0 C3 10.23 3 20.46 3 31 C2.01 31.33 1.02 31.66 0 32 C0 21.44 0 10.88 0 0 Z " fill="#1F222B" transform="translate(143,102)"/>
<path d="M0 0 C1.32 0 2.64 0 4 0 C4 7.59 4 15.18 4 23 C2.68 22.67 1.36 22.34 0 22 C0 14.74 0 7.48 0 0 Z " fill="#1A1D27" transform="translate(135,125)"/>
<path d="M0 0 C0.99 0.495 0.99 0.495 2 1 C1.67 10.24 1.34 19.48 1 29 C1.66 29 2.32 29 3 29 C3 19.43 3 9.86 3 0 C3.33 0 3.66 0 4 0 C4.02488484 4.14428309 4.04294686 8.28852554 4.05493164 12.43286133 C4.0599327 13.84009561 4.0667357 15.24732477 4.07543945 16.65454102 C4.08769159 18.68767569 4.0932707 20.72074114 4.09765625 22.75390625 C4.10289307 23.97408447 4.10812988 25.1942627 4.11352539 26.45141602 C3.80170576 36.19829424 3.80170576 36.19829424 0 40 C0 26.8 0 13.6 0 0 Z " fill="#0C0F1B" transform="translate(111,110)"/>
<path d="M0 0 C1.32 0 2.64 0 4 0 C4 7.26 4 14.52 4 22 C2.68 21.67 1.36 21.34 0 21 C0 14.07 0 7.14 0 0 Z " fill="#000000" transform="translate(127,113)"/>
<path d="M0 0 C0.33 0 0.66 0 1 0 C1.00364563 0.57771652 1.00729126 1.15543304 1.01104736 1.75065613 C1.05289276 7.76948112 1.12225243 13.787545 1.20751953 19.8059082 C1.23572642 22.05127344 1.25694232 24.29673791 1.27099609 26.54223633 C1.29242892 29.77216389 1.33908271 33.00089856 1.390625 36.23046875 C1.39185364 37.23272995 1.39308228 38.23499115 1.39434814 39.2676239 C1.48914033 43.78930331 1.54698511 46.29470119 4.03808594 50.1730957 C4.68551758 50.77597412 5.33294922 51.37885254 6 52 C2 52 2 52 -0.25 50.375 C-2.44576634 47.39503139 -2.32899743 45.61897173 -2 42 C-1.67 42 -1.34 42 -1 42 C-0.67 28.14 -0.34 14.28 0 0 Z " fill="#F2FDFB" transform="translate(78,13)"/>
<path d="M0 0 C0.33 0 0.66 0 1 0 C1.33 13.2 1.66 26.4 2 40 C3.49743119 38.50256881 3.33202693 37.01175761 3.5625 34.9375 C3.7790625 32.9884375 3.7790625 32.9884375 4 31 C4.99 31.66 5.98 32.32 7 33 C7.5 35.8125 7.5 35.8125 7 39 C4.5 41.875 4.5 41.875 2 44 C2 43.34 2 42.68 2 42 C1.34 42 0.68 42 0 42 C0 28.14 0 14.28 0 0 Z " fill="#C1ECE0" transform="translate(110,11)"/>
<path d="M0 0 C0.33 0 0.66 0 1 0 C1 13.86 1 27.72 1 42 C1.66 42.33 2.32 42.66 3 43 C2.505 43.495 2.505 43.495 2 44 C1.63239269 46.32817964 1.29758419 48.6618385 1 51 C0.01 50.67 -0.98 50.34 -2 50 C-1.76228882 48.57965454 -1.76228882 48.57965454 -1.51977539 47.13061523 C-0.84695564 42.39953411 -0.77177341 37.68224593 -0.68359375 32.91015625 C-0.66281265 31.96563095 -0.64203156 31.02110565 -0.62062073 30.04795837 C-0.55562646 27.05287427 -0.496475 24.05770807 -0.4375 21.0625 C-0.39426703 19.02277822 -0.35065127 16.98306452 -0.30664062 14.94335938 C-0.19999695 9.96232212 -0.0985906 4.9812029 0 0 Z " fill="#E4F8F8" transform="translate(60,9)"/>
<path d="M0 0 C0.33 0 0.66 0 1 0 C1 12.54 1 25.08 1 38 C0.34 38 -0.32 38 -1 38 C-1.33 38.66 -1.66 39.32 -2 40 C-2.99 38.68 -3.98 37.36 -5 36 C-3.68 36 -2.36 36 -1 36 C-0.67 24.12 -0.34 12.24 0 0 Z " fill="#EFEFEF" transform="translate(76,110)"/>
<path d="M0 0 C1.65 0 3.3 0 5 0 C5 8.25 5 16.5 5 25 C0.80104745 26.04973814 -1.79405774 25.72795155 -6 25 C-6 24.67 -6 24.34 -6 24 C-2.7 23.67 0.6 23.34 4 23 C4 15.74 4 8.48 4 1 C2.68 0.67 1.36 0.34 0 0 Z " fill="#AAABAC" transform="translate(127,112)"/>
<path d="M0 0 C0.66 0.33 1.32 0.66 2 1 C2.3163106 3.52144736 2.3795062 6.01551152 2.4609375 8.5546875 C2.78674366 11.16695038 2.78674366 11.16695038 5.0390625 12.8203125 C5.68617188 13.20960938 6.33328125 13.59890625 7 14 C6.01 15.485 6.01 15.485 5 17 C0.29571984 14.10505837 0.29571984 14.10505837 -0.51953125 11.05859375 C-0.73836561 9.04457587 -0.8716317 7.0218007 -1 5 C-1.33 4.01 -1.66 3.02 -2 2 C-1.34 2 -0.68 2 0 2 C0 1.34 0 0.68 0 0 Z " fill="#EBECEC" transform="translate(132,135)"/>
<path d="M0 0 C0.66 0 1.32 0 2 0 C2 6.93 2 13.86 2 21 C1.01 20.67 0.02 20.34 -1 20 C-0.67 13.4 -0.34 6.8 0 0 Z " fill="#242631" transform="translate(128,114)"/>
<path d="M0 0 C0.33 0 0.66 0 1 0 C1.16816121 3.58326484 1.33426877 7.16662202 1.5 10.75 C1.54769531 11.76578125 1.59539062 12.7815625 1.64453125 13.828125 C1.71220703 15.29765625 1.71220703 15.29765625 1.78125 16.796875 C1.82314453 17.69760742 1.86503906 18.59833984 1.90820312 19.52636719 C1.98823524 21.68297724 2 23.84190546 2 26 C0.0625 25 0.0625 25 -2 23 C-2.66549451 20.30075428 -2.81680763 17.79368363 -3 15 C-2.01 15.495 -2.01 15.495 -1 16 C-0.67 10.72 -0.34 5.44 0 0 Z " fill="#BEDFE3" transform="translate(134,27)"/>
<path d="M0 0 C0.33 0 0.66 0 1 0 C1.7230444 7.10993658 1.7230444 7.10993658 -0.3359375 9.64453125 C-2 11 -2 11 -5 13 C-5.66 12.34 -6.32 11.68 -7 11 C-6.34 11 -5.68 11 -5 11 C-3.13448574 7.41247258 -1.57464072 3.72187807 0 0 Z " fill="#D8D8D9" transform="translate(157,128)"/>
<path d="M0 0 C1.32 0 2.64 0 4 0 C2.4169423 4.2742558 -0.50568404 6.26531794 -4 9 C-4.66 8.34 -5.32 7.68 -6 7 C-5.195625 6.401875 -4.39125 5.80375 -3.5625 5.1875 C-0.77672016 3.19052724 -0.77672016 3.19052724 0 0 Z " fill="#E9EAEA" transform="translate(53,160)"/>
<path d="M0 0 C0.66 0 1.32 0 2 0 C2 2.97 2 5.94 2 9 C0.35 9.33 -1.3 9.66 -3 10 C-2.69201674 8.51988629 -2.378482 7.04092675 -2.0625 5.5625 C-1.88847656 4.73878906 -1.71445313 3.91507813 -1.53515625 3.06640625 C-1 1 -1 1 0 0 Z " fill="#DCDDDD" transform="translate(115,139)"/>
<path d="M0 0 C0.99 0.66 1.98 1.32 3 2 C3.5 4.8125 3.5 4.8125 3 8 C0.5 10.875 0.5 10.875 -2 13 C-1.855625 12.34 -1.71125 11.68 -1.5625 11 C-0.87700084 7.34400449 -0.43824485 3.69377805 0 0 Z " fill="#D6E4ED" transform="translate(114,42)"/>
<path d="M0 0 C0.0825 0.61875 0.165 1.2375 0.25 1.875 C0.78648121 4.15723303 0.78648121 4.15723303 2.875 5 C3.926875 5.495 3.926875 5.495 5 6 C6.75 8.125 6.75 8.125 8 10 C4 10 4 10 1.75 8.375 C-0.44576634 5.39503139 -0.32899743 3.61897173 0 0 Z " fill="#E0E5F3" transform="translate(76,55)"/>
<path d="M0 0 C0.99 0.33 1.98 0.66 3 1 C1.02 3.31 -0.96 5.62 -3 8 C-4.65 7.67 -6.3 7.34 -8 7 C-7.13375 6.6596875 -7.13375 6.6596875 -6.25 6.3125 C-3.4336339 4.66961977 -1.91922886 2.60466773 0 0 Z " fill="#E5EAF5" transform="translate(147,46)"/>
<path d="M0 0 C0.99 0.33 1.98 0.66 3 1 C1.375 3.5 1.375 3.5 -1 6 C-4.25 6.3125 -4.25 6.3125 -7 6 C-6.38125 5.9175 -5.7625 5.835 -5.125 5.75 C-2.82618538 5.19392091 -2.82618538 5.19392091 -1.8125 3 C-1.544375 2.34 -1.27625 1.68 -1 1 C-0.67 0.67 -0.34 0.34 0 0 Z " fill="#CFD0D1" transform="translate(98,165)"/>
<path d="M0 0 C0.66 0 1.32 0 2 0 C2.6875 3.3125 2.6875 3.3125 3 7 C2.01 7.99 1.02 8.98 0 10 C0 6.7 0 3.4 0 0 Z " fill="#181A23" transform="translate(111,140)"/>
<path d="M0 0 C0.33 0 0.66 0 1 0 C1 2.64 1 5.28 1 8 C-0.875 9.0625 -0.875 9.0625 -3 10 C-3.66 9.67 -4.32 9.34 -5 9 C-4.0409375 7.88625 -4.0409375 7.88625 -3.0625 6.75 C-1.21666593 4.2888879 -0.43930826 2.96533074 0 0 Z " fill="#CBDCEA" transform="translate(157,30)"/>
<path d="M0 0 C1.11375 0.1546875 1.11375 0.1546875 2.25 0.3125 C1.54875 0.869375 0.8475 1.42625 0.125 2 C-2.86344261 4.40374732 -5.80940238 6.85060432 -8.75 9.3125 C-4.85638298 0.5518617 -4.85638298 0.5518617 0 0 Z " fill="#D7D7D8" transform="translate(165.75,136.6875)"/>
<path d="M0 0 C1.670625 0.061875 1.670625 0.061875 3.375 0.125 C3.375 0.455 3.375 0.785 3.375 1.125 C1.395 1.125 -0.585 1.125 -2.625 1.125 C-2.893125 1.764375 -3.16125 2.40375 -3.4375 3.0625 C-4.625 5.125 -4.625 5.125 -7.625 6.125 C-4.84462617 0.16705607 -4.84462617 0.16705607 0 0 Z " fill="#414248" transform="translate(68.625,146.875)"/>
<path d="M0 0 C0.99 0 1.98 0 3 0 C1.125 3.875 1.125 3.875 0 5 C-1.66617115 5.04063832 -3.33388095 5.042721 -5 5 C-4.01 4.67 -3.02 4.34 -2 4 C-0.79117904 1.99983534 -0.79117904 1.99983534 0 0 Z " fill="#DFE7F2" transform="translate(97,68)"/>
<path d="M0 0 C2.3828125 0.0234375 2.3828125 0.0234375 5.125 0.375 C6.03507812 0.48585937 6.94515625 0.59671875 7.8828125 0.7109375 C8.93082031 0.85402344 8.93082031 0.85402344 10 1 C10 1.33 10 1.66 10 2 C9.38511719 2.04898438 8.77023438 2.09796875 8.13671875 2.1484375 C7.32847656 2.22320312 6.52023438 2.29796875 5.6875 2.375 C4.48673828 2.47941406 4.48673828 2.47941406 3.26171875 2.5859375 C0.72775559 2.89564426 0.72775559 2.89564426 -2 5 C-2 2 -2 2 0 0 Z " fill="#6168DE" transform="translate(63,63)"/>
<path d="M0 0 C0.99 0.33 1.98 0.66 3 1 C3 3.66666667 3 6.33333333 3 9 C1.5 7.875 1.5 7.875 0 6 C-0.1875 2.8125 -0.1875 2.8125 0 0 Z " fill="#434DDD" transform="translate(133,58)"/>
<path d="M0 0 C0.99 0.33 1.98 0.66 3 1 C2.38125 1.5775 1.7625 2.155 1.125 2.75 C-0.81347053 4.80249821 -1.90014249 6.43366582 -3 9 C-3.36923077 3.46153846 -3.36923077 3.46153846 -1.5 1.125 C-1.005 0.75375 -0.51 0.3825 0 0 Z " fill="#13151B" transform="translate(161,123)"/>
<path d="M0 0 C0.9075 0.103125 1.815 0.20625 2.75 0.3125 C2.75 0.6425 2.75 0.9725 2.75 1.3125 C1.1 1.3125 -0.55 1.3125 -2.25 1.3125 C-2.91 2.6325 -3.57 3.9525 -4.25 5.3125 C-5.24 5.3125 -6.23 5.3125 -7.25 5.3125 C-4.05 0.38942308 -4.05 0.38942308 0 0 Z " fill="#4852DD" transform="translate(165.25,23.6875)"/>
<path d="M0 0 C0.185625 0.9590625 0.185625 0.9590625 0.375 1.9375 C0.684375 2.9584375 0.684375 2.9584375 1 4 C1.66 4.33 2.32 4.66 3 5 C2.01 5.33 1.02 5.66 0 6 C-1.5 4.625 -1.5 4.625 -3 3 C-3 2.34 -3 1.68 -3 1 C-2.01 0.67 -1.02 0.34 0 0 Z " fill="#F1F1F1" transform="translate(85,161)"/>
</svg>
